<?xml version="1.0" encoding="UTF-8"?>
<!DOCTYPE svg PUBLIC "-//W3C//DTD SVG 1.1//EN" "http://www.w3.org/Graphics/SVG/1.1/DTD/svg11.dtd">
<svg xmlns="http://www.w3.org/2000/svg" version="1.1" width="1660px" height="1164px" style="shape-rendering:geometricPrecision; text-rendering:geometricPrecision; image-rendering:optimizeQuality; fill-rule:evenodd; clip-rule:evenodd" xmlns:xlink="http://www.w3.org/1999/xlink">
<g><path style="opacity:1" fill="#fefefe" d="M -0.5,-0.5 C 552.833,-0.5 1106.17,-0.5 1659.5,-0.5C 1659.5,387.5 1659.5,775.5 1659.5,1163.5C 1106.17,1163.5 552.833,1163.5 -0.5,1163.5C -0.5,775.5 -0.5,387.5 -0.5,-0.5 Z"/></g>
<g><path style="opacity:1" fill="#1e4c7c" d="M 711.5,133.5 C 712.458,133.953 713.292,134.619 714,135.5C 801.88,312.259 890.046,488.926 978.5,665.5C 944.833,666.833 911.167,666.833 877.5,665.5C 822.756,555.678 767.756,446.012 712.5,336.5C 656.839,445.822 601.672,555.488 547,665.5C 513.238,666.662 479.405,666.829 445.5,666C 534.577,488.679 623.244,311.179 711.5,133.5 Z"/></g>
<g><path style="opacity:1" fill="#a62b17" d="M 916.5,133.5 C 917.376,133.369 918.043,133.702 918.5,134.5C 1007.04,311.744 1095.71,488.911 1184.5,666C 1150.6,666.829 1116.76,666.662 1083,665.5C 1028,555.5 973,445.5 918,335.5C 904.333,362.167 890.667,388.833 877,415.5C 860.295,381.922 843.461,348.422 826.5,315C 857.198,254.771 887.198,194.271 916.5,133.5 Z"/></g>
<g><path style="opacity:1" fill="#1f4d7c" d="M 135.5,738.5 C 140.348,739.814 145.348,739.814 150.5,738.5C 150.376,737.893 150.043,737.56 149.5,737.5C 131.284,725.729 121.284,709.063 119.5,687.5C 144.435,700.312 170.768,708.812 198.5,713C 230.468,714.447 262.468,714.947 294.5,714.5C 286.617,761.133 278.95,807.799 271.5,854.5C 260.167,854.5 248.833,854.5 237.5,854.5C 242.842,823.48 248.009,792.48 253,761.5C 241.626,781.748 230.126,801.915 218.5,822C 224.833,822.333 231.167,822.667 237.5,823C 231.208,833.083 225.041,843.25 219,853.5C 201.574,854.658 184.074,854.825 166.5,854C 177.626,834.915 188.626,815.748 199.5,796.5C 193.672,794.277 187.838,791.943 182,789.5C 174.025,791.689 166.858,790.189 160.5,785C 164.167,783.167 167.833,781.333 171.5,779.5C 166.533,778.671 161.533,778.171 156.5,778C 150.699,776.033 146.699,772.199 144.5,766.5C 150.138,765.67 155.804,765.17 161.5,765C 148.598,759.26 137.931,750.76 129.5,739.5C 131.396,738.534 133.396,738.201 135.5,738.5 Z"/></g>
<g><path style="opacity:1" fill="#89a1bb" d="M 703.5,715.5 C 719.658,714.504 735.991,714.17 752.5,714.5C 752.737,715.791 752.404,716.791 751.5,717.5C 735.868,715.515 719.868,714.849 703.5,715.5 Z"/></g>
<g><path style="opacity:1" fill="#7791af" d="M 1245.5,717.5 C 1219.85,715.509 1193.85,714.842 1167.5,715.5C 1167.5,761.833 1167.5,808.167 1167.5,854.5C 1166.5,808.003 1166.17,761.336 1166.5,714.5C 1193.17,714.5 1219.83,714.5 1246.5,714.5C 1246.74,715.791 1246.4,716.791 1245.5,717.5 Z"/></g>
<g><path style="opacity:1" fill="#204d7d" d="M 332.5,714.5 C 344.186,714.168 355.852,714.501 367.5,715.5C 349.833,761.5 332.167,807.5 314.5,853.5C 302.833,854.833 291.167,854.833 279.5,853.5C 297.766,807.365 315.433,761.032 332.5,714.5 Z"/></g>
<g><path style="opacity:1" fill="#204d7d" d="M 382.5,822.5 C 382.666,817.489 382.499,812.489 382,807.5C 381.283,808.044 380.783,808.711 380.5,809.5C 375.232,824.3 369.566,838.967 363.5,853.5C 352.186,854.499 340.853,854.832 329.5,854.5C 342.833,818.5 356.167,782.5 369.5,746.5C 367.712,746.785 366.045,746.452 364.5,745.5C 370.167,735.5 375.833,725.5 381.5,715.5C 406.827,714.334 432.16,714.167 457.5,715C 464.3,717.129 466.8,721.629 465,728.5C 456.617,750.935 447.95,773.268 439,795.5C 434.499,803.5 427.666,807.5 418.5,807.5C 418.5,823.167 418.5,838.833 418.5,854.5C 406.833,854.5 395.167,854.5 383.5,854.5C 383.572,843.817 383.238,833.15 382.5,822.5 Z"/></g>
<g><path style="opacity:1" fill="#204d7d" d="M 493.5,714.5 C 513.169,714.333 532.836,714.5 552.5,715C 561.048,716.334 563.882,721.167 561,729.5C 556.932,740.539 552.765,751.539 548.5,762.5C 536.848,763.666 525.181,763.833 513.5,763C 515.917,758.427 517.083,753.594 517,748.5C 511.249,745.265 506.249,746.265 502,751.5C 492.61,773.505 484.11,795.838 476.5,818.5C 476.57,819.772 476.903,820.938 477.5,822C 493.5,822.333 509.5,822.667 525.5,823C 519.626,833.249 513.626,843.416 507.5,853.5C 484.507,854.666 461.507,854.833 438.5,854C 435.572,852.74 433.739,850.573 433,847.5C 432.39,843.764 432.723,840.097 434,836.5C 447.333,801.833 460.667,767.167 474,732.5C 477.545,723.116 484.045,717.116 493.5,714.5 Z"/></g>
<g><path style="opacity:1" fill="#204d7c" d="M 581.5,714.5 C 606.502,714.333 631.502,714.5 656.5,715C 663.526,716.878 666.026,721.378 664,728.5C 655.784,751.816 646.784,774.816 637,797.5C 632.179,804.16 625.679,807.494 617.5,807.5C 617.5,823.167 617.5,838.833 617.5,854.5C 605.833,854.5 594.167,854.5 582.5,854.5C 582.461,838.82 581.961,823.153 581,807.5C 574.642,822.904 568.475,838.404 562.5,854C 551.172,854.5 539.838,854.667 528.5,854.5C 541.568,818.634 555.234,782.968 569.5,747.5C 567.5,746.833 565.5,746.167 563.5,745.5C 569.528,735.149 575.528,724.816 581.5,714.5 Z"/></g>
<g><path style="opacity:1" fill="#1f4c7c" d="M 703.5,715.5 C 719.868,714.849 735.868,715.515 751.5,717.5C 743.627,763.073 736.293,808.74 729.5,854.5C 718.167,854.5 706.833,854.5 695.5,854.5C 700.136,823.017 705.303,791.683 711,760.5C 699.5,780.833 688,801.167 676.5,821.5C 682.5,822.167 688.5,822.833 694.5,823.5C 688.5,833.5 682.5,843.5 676.5,853.5C 659.167,854.833 641.833,854.833 624.5,853.5C 650.86,807.437 677.194,761.437 703.5,715.5 Z"/></g>
<g><path style="opacity:1" fill="#204d7d" d="M 851.5,746.5 C 838.124,745.852 825.124,746.519 812.5,748.5C 809.885,754.731 807.551,761.064 805.5,767.5C 804.957,767.56 804.624,767.893 804.5,768.5C 816.815,769.499 829.149,769.832 841.5,769.5C 835.727,779.78 829.727,789.946 823.5,800C 812.923,800.179 802.423,800.679 792,801.5C 785.296,819.071 778.463,836.571 771.5,854C 760.172,854.5 748.838,854.667 737.5,854.5C 754.67,807.824 772.337,761.324 790.5,715C 816.84,714.167 843.173,714.333 869.5,715.5C 863.472,725.851 857.472,736.184 851.5,746.5 Z"/></g>
<g><path style="opacity:1" fill="#214d7d" d="M 882.5,714.5 C 908.842,714.167 935.175,714.5 961.5,715.5C 955.699,725.797 949.699,735.964 943.5,746C 936.842,746.5 930.175,746.666 923.5,746.5C 910.305,782.248 896.805,817.915 883,853.5C 871.581,854.488 860.081,854.821 848.5,854.5C 861.333,818.503 874.999,782.837 889.5,747.5C 881.167,746.833 872.833,746.167 864.5,745.5C 870.528,735.149 876.528,724.816 882.5,714.5 Z"/></g>
<g><path style="opacity:1" fill="#204d7d" d="M 991.5,714.5 C 1007.83,714.5 1024.17,714.5 1040.5,714.5C 1050.29,761.218 1060.29,807.885 1070.5,854.5C 1058.92,854.821 1047.42,854.488 1036,853.5C 1029.92,822.44 1023.59,791.44 1017,760.5C 1012.55,780.981 1008.72,801.647 1005.5,822.5C 1011.5,822.5 1017.5,822.5 1023.5,822.5C 1021.71,833.208 1019.71,843.875 1017.5,854.5C 1000.17,854.5 982.833,854.5 965.5,854.5C 974.074,807.811 982.741,761.144 991.5,714.5 Z"/></g>
<g><path style="opacity:1" fill="#204d7d" d="M 1060.5,714.5 C 1071.83,714.5 1083.17,714.5 1094.5,714.5C 1099.55,744.788 1104.38,775.122 1109,805.5C 1114.26,775.588 1119.43,745.588 1124.5,715.5C 1135.81,714.501 1147.15,714.168 1158.5,714.5C 1150.17,761.179 1141.83,807.846 1133.5,854.5C 1117.5,854.5 1101.5,854.5 1085.5,854.5C 1076.98,807.859 1068.65,761.192 1060.5,714.5 Z"/></g>
<g><path style="opacity:1" fill="#1e4c7c" d="M 1245.5,717.5 C 1243.62,726.13 1241.95,734.797 1240.5,743.5C 1239.6,744.209 1239.26,745.209 1239.5,746.5C 1226.66,746.171 1213.99,746.505 1201.5,747.5C 1201.5,754.833 1201.5,762.167 1201.5,769.5C 1213.83,769.5 1226.17,769.5 1238.5,769.5C 1236.5,779.842 1234.5,790.176 1232.5,800.5C 1222.17,800.5 1211.83,800.5 1201.5,800.5C 1201.5,807.833 1201.5,815.167 1201.5,822.5C 1216.17,822.5 1230.83,822.5 1245.5,822.5C 1243.63,833.192 1241.63,843.858 1239.5,854.5C 1215.5,854.5 1191.5,854.5 1167.5,854.5C 1167.5,808.167 1167.5,761.833 1167.5,715.5C 1193.85,714.842 1219.85,715.509 1245.5,717.5 Z"/></g>
<g><path style="opacity:1" fill="#b3c2d3" d="M 1279.5,715.5 C 1271.17,715.5 1262.83,715.5 1254.5,715.5C 1254.5,761.833 1254.5,808.167 1254.5,854.5C 1253.5,808.003 1253.17,761.336 1253.5,714.5C 1262.35,714.174 1271.02,714.507 1279.5,715.5 Z"/></g>
<g><path style="opacity:1" fill="#1e4c7c" d="M 1279.5,715.5 C 1288.77,731.7 1297.77,748.033 1306.5,764.5C 1306.78,765.289 1307.28,765.956 1308,766.5C 1308.5,749.503 1308.67,732.503 1308.5,715.5C 1319.83,715.5 1331.17,715.5 1342.5,715.5C 1342.5,761.833 1342.5,808.167 1342.5,854.5C 1334.16,854.666 1325.83,854.5 1317.5,854C 1308.35,837.526 1299.35,821.026 1290.5,804.5C 1290.22,803.711 1289.72,803.044 1289,802.5C 1288.5,819.83 1288.33,837.163 1288.5,854.5C 1277.17,854.5 1265.83,854.5 1254.5,854.5C 1254.5,808.167 1254.5,761.833 1254.5,715.5C 1262.83,715.5 1271.17,715.5 1279.5,715.5 Z"/></g>
<g><path style="opacity:1" fill="#c9d3df" d="M 1308.5,714.5 C 1308.5,714.833 1308.5,715.167 1308.5,715.5C 1308.67,732.503 1308.5,749.503 1308,766.5C 1307.28,765.956 1306.78,765.289 1306.5,764.5C 1307.17,747.833 1307.83,731.167 1308.5,714.5 Z"/></g>
<g><path style="opacity:1" fill="#8da4bc" d="M 1308.5,715.5 C 1308.5,715.167 1308.5,714.833 1308.5,714.5C 1320.17,714.5 1331.83,714.5 1343.5,714.5C 1343.83,761.336 1343.5,808.003 1342.5,854.5C 1342.5,808.167 1342.5,761.833 1342.5,715.5C 1331.17,715.5 1319.83,715.5 1308.5,715.5 Z"/></g>
<g><path style="opacity:1" fill="#1e4c7c" d="M 1353.5,715.5 C 1364.83,715.5 1376.17,715.5 1387.5,715.5C 1387.17,749.337 1387.5,783.004 1388.5,816.5C 1389.29,821.597 1392.29,823.597 1397.5,822.5C 1403.19,823.463 1406.19,821.129 1406.5,815.5C 1407.5,782.338 1407.83,749.004 1407.5,715.5C 1418.83,715.5 1430.17,715.5 1441.5,715.5C 1441.98,758.881 1441.48,802.214 1440,845.5C 1438.18,850.336 1434.68,853.169 1429.5,854C 1407.83,854.667 1386.17,854.667 1364.5,854C 1359.75,852.885 1356.59,850.052 1355,845.5C 1353.52,802.214 1353.02,758.881 1353.5,715.5 Z"/></g>
<g><path style="opacity:1" fill="#8da4bd" d="M 1353.5,715.5 C 1364.99,714.505 1376.65,714.172 1388.5,714.5C 1388.5,748.5 1388.5,782.5 1388.5,816.5C 1387.5,783.004 1387.17,749.337 1387.5,715.5C 1376.17,715.5 1364.83,715.5 1353.5,715.5 Z"/></g>
<g><path style="opacity:1" fill="#839cb6" d="M 1441.5,715.5 C 1430.17,715.5 1418.83,715.5 1407.5,715.5C 1407.83,749.004 1407.5,782.338 1406.5,815.5C 1406.5,781.833 1406.5,748.167 1406.5,714.5C 1418.35,714.172 1430.01,714.505 1441.5,715.5 Z"/></g>
<g><path style="opacity:1" fill="#829bb6" d="M 1530.5,717.5 C 1504.85,715.509 1478.85,714.842 1452.5,715.5C 1452.5,761.833 1452.5,808.167 1452.5,854.5C 1451.5,808.003 1451.17,761.336 1451.5,714.5C 1478.17,714.5 1504.83,714.5 1531.5,714.5C 1531.74,715.791 1531.4,716.791 1530.5,717.5 Z"/></g>
<g><path style="opacity:1" fill="#1e4c7c" d="M 1530.5,717.5 C 1529.01,727.284 1527.01,736.95 1524.5,746.5C 1511.83,746.5 1499.17,746.5 1486.5,746.5C 1486.5,754.167 1486.5,761.833 1486.5,769.5C 1499.21,768.854 1511.55,769.52 1523.5,771.5C 1521.66,781.065 1519.66,790.565 1517.5,800C 1507.17,800.5 1496.84,800.666 1486.5,800.5C 1486.5,807.833 1486.5,815.167 1486.5,822.5C 1501.17,823.167 1515.83,823.833 1530.5,824.5C 1528.32,834.413 1526.65,844.413 1525.5,854.5C 1501.17,854.5 1476.83,854.5 1452.5,854.5C 1452.5,808.167 1452.5,761.833 1452.5,715.5C 1478.85,714.842 1504.85,715.509 1530.5,717.5 Z"/></g>
<g><path style="opacity:1" fill="#8ca3bc" d="M 149.5,737.5 C 150.043,737.56 150.376,737.893 150.5,738.5C 145.348,739.814 140.348,739.814 135.5,738.5C 140.363,738.819 145.03,738.486 149.5,737.5 Z"/></g>
<g><path style="opacity:1" fill="#c6d2de" d="M 851.5,746.5 C 838.598,747.184 825.598,747.851 812.5,748.5C 825.124,746.519 838.124,745.852 851.5,746.5 Z"/></g>
<g><path style="opacity:1" fill="#c7d2de" d="M 1240.5,743.5 C 1240.5,744.833 1240.5,746.167 1240.5,747.5C 1227.5,747.5 1214.5,747.5 1201.5,747.5C 1213.99,746.505 1226.66,746.171 1239.5,746.5C 1239.26,745.209 1239.6,744.209 1240.5,743.5 Z"/></g>
<g><path style="opacity:1" fill="#f9fafb" d="M 407.5,775.5 C 402.968,775.818 398.634,775.485 394.5,774.5C 397.542,765.412 400.875,756.412 404.5,747.5C 409.467,746.338 414.467,746.171 419.5,747C 420.804,747.804 421.471,748.971 421.5,750.5C 419.502,758.161 416.669,765.495 413,772.5C 411.512,774.16 409.679,775.16 407.5,775.5 Z"/></g>
<g><path style="opacity:1" fill="#f9fafc" d="M 606.5,775.5 C 601.968,775.818 597.634,775.485 593.5,774.5C 597.034,765.231 600.367,755.898 603.5,746.5C 608.511,746.334 613.511,746.501 618.5,747C 619.804,747.804 620.471,748.971 620.5,750.5C 618.611,759.016 615.278,766.849 610.5,774C 609.255,774.791 607.922,775.291 606.5,775.5 Z"/></g>
<g><path style="opacity:1" fill="#c4d0dd" d="M 805.5,767.5 C 817.5,768.167 829.5,768.833 841.5,769.5C 829.149,769.832 816.815,769.499 804.5,768.5C 804.624,767.893 804.957,767.56 805.5,767.5 Z"/></g>
<g><path style="opacity:1" fill="#c6d2de" d="M 1524.5,746.5 C 1512.34,747.495 1500.01,747.829 1487.5,747.5C 1487.5,754.5 1487.5,761.5 1487.5,768.5C 1499.83,768.5 1512.17,768.5 1524.5,768.5C 1524.74,769.791 1524.4,770.791 1523.5,771.5C 1511.55,769.52 1499.21,768.854 1486.5,769.5C 1486.5,761.833 1486.5,754.167 1486.5,746.5C 1499.17,746.5 1511.83,746.5 1524.5,746.5 Z"/></g>
<g><path style="opacity:1" fill="#7e98b3" d="M 394.5,774.5 C 398.634,775.485 402.968,775.818 407.5,775.5C 402.985,776.812 398.318,776.812 393.5,775.5C 393.624,774.893 393.957,774.56 394.5,774.5 Z"/></g>
<g><path style="opacity:1" fill="#7c97b2" d="M 593.5,774.5 C 597.634,775.485 601.968,775.818 606.5,775.5C 601.985,776.812 597.318,776.812 592.5,775.5C 592.624,774.893 592.957,774.56 593.5,774.5 Z"/></g>
<g><path style="opacity:1" fill="#9cb0c5" d="M 1290.5,804.5 C 1289.83,821.167 1289.17,837.833 1288.5,854.5C 1288.33,837.163 1288.5,819.83 1289,802.5C 1289.72,803.044 1290.22,803.711 1290.5,804.5 Z"/></g>
<g><path style="opacity:1" fill="#a6b7cb" d="M 382.5,822.5 C 381.833,818.167 381.167,813.833 380.5,809.5C 380.783,808.711 381.283,808.044 382,807.5C 382.499,812.489 382.666,817.489 382.5,822.5 Z"/></g>
<g><path style="opacity:1" fill="#53759b" d="M 1486.5,822.5 C 1501.51,822.167 1516.51,822.501 1531.5,823.5C 1531.38,824.107 1531.04,824.44 1530.5,824.5C 1515.83,823.833 1501.17,823.167 1486.5,822.5 Z"/></g>
<g><path style="opacity:1" fill="#26507f" d="M 465.5,917.5 C 468.833,917.5 472.167,917.5 475.5,917.5C 482.57,936.704 490.237,955.704 498.5,974.5C 495.232,975.487 491.898,975.82 488.5,975.5C 486.998,969.827 484.998,964.327 482.5,959C 474.479,958.168 466.479,958.335 458.5,959.5C 456.667,964.5 454.833,969.5 453,974.5C 450.281,975.444 447.448,975.777 444.5,975.5C 451.5,956.167 458.5,936.833 465.5,917.5 Z"/></g>
<g><path style="opacity:1" fill="#2a5381" d="M 540.5,917.5 C 543.167,917.5 545.833,917.5 548.5,917.5C 548.5,920.5 548.5,923.5 548.5,926.5C 545.833,926.5 543.167,926.5 540.5,926.5C 540.5,923.5 540.5,920.5 540.5,917.5 Z"/></g>
<g><path style="opacity:1" fill="#2a5381" d="M 625.5,917.5 C 628.167,917.5 630.833,917.5 633.5,917.5C 633.5,920.5 633.5,923.5 633.5,926.5C 630.833,926.5 628.167,926.5 625.5,926.5C 625.5,923.5 625.5,920.5 625.5,917.5 Z"/></g>
<g><path style="opacity:1" fill="#234f7e" d="M 764.5,931.5 C 764.217,930.711 763.717,930.044 763,929.5C 762.5,944.83 762.333,960.163 762.5,975.5C 760.167,975.5 757.833,975.5 755.5,975.5C 755.5,956.167 755.5,936.833 755.5,917.5C 759.555,917.176 763.555,917.509 767.5,918.5C 772.765,933.796 777.932,949.13 783,964.5C 788.728,949.317 794.061,933.984 799,918.5C 802.73,917.54 806.563,917.207 810.5,917.5C 810.5,936.833 810.5,956.167 810.5,975.5C 807.833,975.5 805.167,975.5 802.5,975.5C 802.667,960.496 802.5,945.496 802,930.5C 796.932,945.204 791.765,959.871 786.5,974.5C 783.914,975.48 781.247,975.813 778.5,975.5C 774.035,960.773 769.369,946.106 764.5,931.5 Z"/></g>
<g><path style="opacity:1" fill="#244f7e" d="M 899.5,917.5 C 899.168,928.187 899.501,938.854 900.5,949.5C 901.107,949.376 901.44,949.043 901.5,948.5C 905.963,943.535 910.63,938.702 915.5,934C 918.833,933.333 922.167,933.333 925.5,934C 920.318,939.015 915.318,944.181 910.5,949.5C 916.043,958.086 921.709,966.586 927.5,975C 924.118,975.824 920.784,975.657 917.5,974.5C 913.525,967.869 909.191,961.536 904.5,955.5C 903.186,956.313 902.019,957.313 901,958.5C 900.501,964.157 900.334,969.824 900.5,975.5C 897.833,975.5 895.167,975.5 892.5,975.5C 892.5,956.167 892.5,936.833 892.5,917.5C 894.833,917.5 897.167,917.5 899.5,917.5 Z"/></g>
<g><path style="opacity:1" fill="#6e8baa" d="M 899.5,917.5 C 900.167,927.833 900.833,938.167 901.5,948.5C 901.44,949.043 901.107,949.376 900.5,949.5C 899.501,938.854 899.168,928.187 899.5,917.5 Z"/></g>
<g><path style="opacity:1" fill="#1e4c7c" d="M 1043.5,917.5 C 1045.83,917.5 1048.17,917.5 1050.5,917.5C 1050.5,936.833 1050.5,956.167 1050.5,975.5C 1048.17,975.5 1045.83,975.5 1043.5,975.5C 1043.5,956.167 1043.5,936.833 1043.5,917.5 Z"/></g>
<g><path style="opacity:1" fill="#295381" d="M 611.5,918.5 C 612.487,923.305 612.821,928.305 612.5,933.5C 614.833,933.5 617.167,933.5 619.5,933.5C 619.5,935.5 619.5,937.5 619.5,939.5C 617.167,939.5 614.833,939.5 612.5,939.5C 612.334,948.839 612.5,958.173 613,967.5C 618.664,967.309 621.164,969.975 620.5,975.5C 616.486,975.666 612.486,975.499 608.5,975C 606.951,973.786 605.785,972.286 605,970.5C 604.5,960.172 604.334,949.839 604.5,939.5C 602.833,939.5 601.167,939.5 599.5,939.5C 599.5,937.5 599.5,935.5 599.5,933.5C 601.167,933.5 602.833,933.5 604.5,933.5C 604.177,929.774 604.511,926.107 605.5,922.5C 607.813,921.5 609.813,920.166 611.5,918.5 Z"/></g>
<g><path style="opacity:1" fill="#295381" d="M 984.5,918.5 C 985.487,923.305 985.821,928.305 985.5,933.5C 987.833,933.5 990.167,933.5 992.5,933.5C 992.5,935.5 992.5,937.5 992.5,939.5C 990.167,939.5 987.833,939.5 985.5,939.5C 985.334,948.839 985.5,958.173 986,967.5C 991.664,967.309 994.164,969.975 993.5,975.5C 989.486,975.666 985.486,975.499 981.5,975C 979.951,973.786 978.785,972.286 978,970.5C 977.5,960.172 977.334,949.839 977.5,939.5C 975.833,939.5 974.167,939.5 972.5,939.5C 972.5,937.5 972.5,935.5 972.5,933.5C 974.167,933.5 975.833,933.5 977.5,933.5C 977.177,929.774 977.511,926.107 978.5,922.5C 980.813,921.5 982.813,920.166 984.5,918.5 Z"/></g>
<g><path style="opacity:1" fill="#f3f5f8" d="M 469.5,925.5 C 473.391,933.823 476.725,942.49 479.5,951.5C 473.463,951.829 467.463,951.496 461.5,950.5C 465.046,942.418 467.713,934.085 469.5,925.5 Z"/></g>
<g><path style="opacity:1" fill="#849db7" d="M 764.5,931.5 C 763.833,946.167 763.167,960.833 762.5,975.5C 762.333,960.163 762.5,944.83 763,929.5C 763.717,930.044 764.217,930.711 764.5,931.5 Z"/></g>
<g><path style="opacity:1" fill="#275180" d="M 569.5,932.5 C 576.81,931.673 583.643,933.006 590,936.5C 590.667,937.833 591.333,939.167 592,940.5C 592.002,952.263 592.835,963.93 594.5,975.5C 591.833,975.5 589.167,975.5 586.5,975.5C 586.5,974.167 586.5,972.833 586.5,971.5C 582.895,972.963 579.229,974.463 575.5,976C 560.261,978.348 554.428,972.182 558,957.5C 559.938,954.894 562.438,953.061 565.5,952C 571.186,951.108 576.853,950.108 582.5,949C 585.07,946.385 585.07,943.718 582.5,941C 577.9,939.234 573.233,939.067 568.5,940.5C 566.585,942.071 565.585,944.071 565.5,946.5C 562.833,946.5 560.167,946.5 557.5,946.5C 558.294,939.042 562.294,934.375 569.5,932.5 Z"/></g>
<g><path style="opacity:1" fill="#295281" d="M 654.5,932.5 C 674.458,931.963 682.958,941.629 680,961.5C 674.99,974.183 665.824,978.683 652.5,975C 646.175,972.201 642.341,967.368 641,960.5C 638.558,947.594 643.058,938.26 654.5,932.5 Z"/></g>
<g><path style="opacity:1" fill="#244f7e" d="M 702.5,932.5 C 710.498,931.213 716.665,933.88 721,940.5C 721.5,952.162 721.667,963.829 721.5,975.5C 719.167,975.5 716.833,975.5 714.5,975.5C 714.666,965.494 714.5,955.494 714,945.5C 711.646,939.905 707.479,938.072 701.5,940C 699,941.167 697.167,943 696,945.5C 695.5,955.494 695.334,965.494 695.5,975.5C 692.833,975.5 690.167,975.5 687.5,975.5C 687.5,961.5 687.5,947.5 687.5,933.5C 689.833,933.5 692.167,933.5 694.5,933.5C 694.343,934.873 694.51,936.207 695,937.5C 697.426,935.548 699.926,933.881 702.5,932.5 Z"/></g>
<g><path style="opacity:1" fill="#275180" d="M 832.5,932.5 C 839.81,931.673 846.643,933.006 853,936.5C 853.667,937.833 854.333,939.167 855,940.5C 855.002,952.263 855.835,963.93 857.5,975.5C 854.833,975.5 852.167,975.5 849.5,975.5C 849.5,974.167 849.5,972.833 849.5,971.5C 845.895,972.963 842.229,974.463 838.5,976C 823.261,978.348 817.428,972.182 821,957.5C 822.938,954.894 825.438,953.061 828.5,952C 834.186,951.108 839.853,950.108 845.5,949C 848.07,946.385 848.07,943.718 845.5,941C 840.9,939.234 836.233,939.067 831.5,940.5C 829.585,942.071 828.585,944.071 828.5,946.5C 825.833,946.5 823.167,946.5 820.5,946.5C 821.294,939.042 825.294,934.375 832.5,932.5 Z"/></g>
<g><path style="opacity:1" fill="#285280" d="M 877.5,932.5 C 881.721,931.808 885.387,932.808 888.5,935.5C 887.833,937.167 887.167,938.833 886.5,940.5C 883.943,940.782 881.277,940.949 878.5,941C 876.333,941.833 874.833,943.333 874,945.5C 873.5,955.494 873.334,965.494 873.5,975.5C 870.833,975.5 868.167,975.5 865.5,975.5C 865.5,961.5 865.5,947.5 865.5,933.5C 867.833,933.5 870.167,933.5 872.5,933.5C 872.343,934.873 872.51,936.207 873,937.5C 874.707,935.963 876.207,934.296 877.5,932.5 Z"/></g>
<g><path style="opacity:1" fill="#25507f" d="M 944.5,932.5 C 961.521,931.521 969.521,939.521 968.5,956.5C 958.5,956.5 948.5,956.5 938.5,956.5C 939.021,966.857 944.355,971.023 954.5,969C 957.689,967.145 960.189,964.645 962,961.5C 964.226,961.978 966.392,962.645 968.5,963.5C 964.067,974.219 956.067,978.385 944.5,976C 936.886,974.053 932.386,969.22 931,961.5C 927.595,947.791 932.095,938.125 944.5,932.5 Z"/></g>
<g><path style="opacity:1" fill="#25507f" d="M 1012.5,932.5 C 1023.22,931.106 1030.39,935.44 1034,945.5C 1035.6,954.39 1034.26,962.723 1030,970.5C 1022.81,977.56 1015.14,978.226 1007,972.5C 1006.5,978.825 1006.33,985.158 1006.5,991.5C 1003.83,991.5 1001.17,991.5 998.5,991.5C 998.5,972.167 998.5,952.833 998.5,933.5C 1000.83,933.5 1003.17,933.5 1005.5,933.5C 1005.34,934.873 1005.51,936.207 1006,937.5C 1007.97,935.45 1010.13,933.783 1012.5,932.5 Z"/></g>
<g><path style="opacity:1" fill="#275180" d="M 1072.5,932.5 C 1079.81,931.673 1086.64,933.006 1093,936.5C 1093.67,937.833 1094.33,939.167 1095,940.5C 1095,952.263 1095.84,963.93 1097.5,975.5C 1094.83,975.5 1092.17,975.5 1089.5,975.5C 1089.5,974.167 1089.5,972.833 1089.5,971.5C 1085.9,972.963 1082.23,974.463 1078.5,976C 1063.26,978.348 1057.43,972.182 1061,957.5C 1062.94,954.894 1065.44,953.061 1068.5,952C 1074.19,951.108 1079.85,950.108 1085.5,949C 1088.07,946.385 1088.07,943.718 1085.5,941C 1080.9,939.234 1076.23,939.067 1071.5,940.5C 1069.58,942.071 1068.58,944.071 1068.5,946.5C 1065.83,946.5 1063.17,946.5 1060.5,946.5C 1061.29,939.042 1065.29,934.375 1072.5,932.5 Z"/></g>
<g><path style="opacity:1" fill="#285280" d="M 1116.5,932.5 C 1127.98,930.4 1135.65,934.733 1139.5,945.5C 1136.83,946.833 1134.17,946.833 1131.5,945.5C 1128.5,939.857 1123.83,938.024 1117.5,940C 1114.86,941.961 1113.03,944.461 1112,947.5C 1111.15,953.253 1111.48,958.92 1113,964.5C 1118.03,970.355 1123.69,971.021 1130,966.5C 1131.41,964.35 1132.24,962.016 1132.5,959.5C 1134.86,959.674 1137.19,960.007 1139.5,960.5C 1137.38,972.75 1130.04,977.916 1117.5,976C 1109.44,973.94 1104.94,968.774 1104,960.5C 1100.97,947.693 1105.14,938.359 1116.5,932.5 Z"/></g>
<g><path style="opacity:1" fill="#25507f" d="M 1157.5,932.5 C 1174.52,931.521 1182.52,939.521 1181.5,956.5C 1171.5,956.5 1161.5,956.5 1151.5,956.5C 1152.02,966.857 1157.35,971.023 1167.5,969C 1170.69,967.145 1173.19,964.645 1175,961.5C 1177.23,961.978 1179.39,962.645 1181.5,963.5C 1177.07,974.219 1169.07,978.385 1157.5,976C 1149.89,974.053 1145.39,969.22 1144,961.5C 1140.59,947.791 1145.09,938.125 1157.5,932.5 Z"/></g>
<g><path style="opacity:1" fill="#25507f" d="M 496.5,933.5 C 499.247,933.187 501.914,933.52 504.5,934.5C 507.973,944.254 511.64,953.921 515.5,963.5C 519.36,953.921 523.027,944.254 526.5,934.5C 529.167,933.167 531.833,933.167 534.5,934.5C 529.293,948.125 524.293,961.792 519.5,975.5C 516.833,975.5 514.167,975.5 511.5,975.5C 506.507,961.511 501.507,947.511 496.5,933.5 Z"/></g>
<g><path style="opacity:1" fill="#295281" d="M 540.5,933.5 C 543.167,933.5 545.833,933.5 548.5,933.5C 548.5,947.5 548.5,961.5 548.5,975.5C 545.833,975.5 543.167,975.5 540.5,975.5C 540.5,961.5 540.5,947.5 540.5,933.5 Z"/></g>
<g><path style="opacity:1" fill="#295281" d="M 625.5,933.5 C 628.167,933.5 630.833,933.5 633.5,933.5C 633.5,947.5 633.5,961.5 633.5,975.5C 630.833,975.5 628.167,975.5 625.5,975.5C 625.5,961.5 625.5,947.5 625.5,933.5 Z"/></g>
<g><path style="opacity:1" fill="#fafbfc" d="M 655.5,939.5 C 668.823,938.74 674.323,945.074 672,958.5C 670.178,967.666 664.678,971.166 655.5,969C 646.201,959.15 646.201,949.317 655.5,939.5 Z"/></g>
<g><path style="opacity:1" fill="#f8f9fb" d="M 960.5,949.5 C 953.5,949.5 946.5,949.5 939.5,949.5C 939.5,948.5 939.5,947.5 939.5,946.5C 944.085,937.816 950.252,936.483 958,942.5C 959.903,944.441 960.736,946.774 960.5,949.5 Z"/></g>
<g><path style="opacity:1" fill="#f9fafb" d="M 1013.5,938.5 C 1020.67,938.161 1025.17,941.495 1027,948.5C 1028.1,954.859 1027.1,960.859 1024,966.5C 1014.76,972.333 1008.76,970 1006,959.5C 1003.88,950.673 1006.38,943.673 1013.5,938.5 Z"/></g>
<g><path style="opacity:1" fill="#f8f9fb" d="M 1173.5,949.5 C 1166.5,949.5 1159.5,949.5 1152.5,949.5C 1152.5,948.5 1152.5,947.5 1152.5,946.5C 1157.09,937.816 1163.25,936.483 1171,942.5C 1172.9,944.441 1173.74,946.774 1173.5,949.5 Z"/></g>
<g><path style="opacity:1" fill="#b1c1d2" d="M 939.5,946.5 C 939.5,947.5 939.5,948.5 939.5,949.5C 946.5,949.5 953.5,949.5 960.5,949.5C 953.352,950.492 946.019,950.825 938.5,950.5C 938.232,948.901 938.566,947.568 939.5,946.5 Z"/></g>
<g><path style="opacity:1" fill="#b1c1d2" d="M 1152.5,946.5 C 1152.5,947.5 1152.5,948.5 1152.5,949.5C 1159.5,949.5 1166.5,949.5 1173.5,949.5C 1166.35,950.492 1159.02,950.825 1151.5,950.5C 1151.23,948.901 1151.57,947.568 1152.5,946.5 Z"/></g>
<g><path style="opacity:1" fill="#f6f8fa" d="M 581.5,955.5 C 582.5,955.5 583.5,955.5 584.5,955.5C 584.794,966.522 579.46,971.356 568.5,970C 562.927,965.528 563.26,961.528 569.5,958C 573.665,957.295 577.665,956.461 581.5,955.5 Z"/></g>
<g><path style="opacity:1" fill="#f6f8fa" d="M 844.5,955.5 C 845.5,955.5 846.5,955.5 847.5,955.5C 847.794,966.522 842.46,971.356 831.5,970C 825.927,965.528 826.26,961.528 832.5,958C 836.665,957.295 840.665,956.461 844.5,955.5 Z"/></g>
<g><path style="opacity:1" fill="#f6f8fa" d="M 1084.5,955.5 C 1085.5,955.5 1086.5,955.5 1087.5,955.5C 1087.79,966.522 1082.46,971.356 1071.5,970C 1065.93,965.528 1066.26,961.528 1072.5,958C 1076.67,957.295 1080.67,956.461 1084.5,955.5 Z"/></g>
</svg>
